# xmcd
#
# Track frame offsets:
#	150
#	13795
#	27468
#	39118
#	53818
#	65939
#	79880
#	92525
#	104825
#	117687
#	128299
#	142324
#
# Disc length: 2075 seconds
#
# Revision: 0
# Processed by: cddbd v1.5.2PL0 Copyright (c) Steve Scherf et al.
# Submitted via: EasyCDDAExtractor 16.0.6.1
#
DISCID=ac08190c
DTITLE=Συλλογικός δίσκος - Λαϊκά και εύθυμα-LP
DYEAR=1976
DGENRE=Λαϊκή
TTITLE0=Μαρίνος Πάνος - Άδικα χάνεις τον καιρό σου [Θ. Καραπατάκη-Π. Πολίτου]
TTITLE1=Μαρίνος Πάνος - Ήρθες κλαμμένη [Π. Μαρίνου-Π. Πολίτου]
TTITLE2=Δημητρίου Σούλα - Έλα λεβέντη μου [Τ. Λαβίδα]
TTITLE3=Δημητρίου Σούλα - Όλοι με λέγαν να σε χωρίσω [Τ. Λαβίδα]
TTITLE4=Ατταλειώτης Μπάμπης - Απ' την Σμύρνη ήρθε μιά προχθές [Τ. Λαβίδα]
TTITLE5=Ατταλειώτης Μπάμπης - Σαν βραδιάζει [Τ. Λαβίδα]
TTITLE6=Ταλιούρης Γιώργος - Είσαι στον έρωτα φωτιά [Γ. Μπούρα-Π. Πολίτου]
TTITLE7=Ταλιούρης Γιώργος - Φύγε και θα δεις [Γ. Μπούρα-Π. Πολίτου]
TTITLE8=Τσαχαλού Αννούλα - Δεν άξιζε, να σ' αγαπώ [Π. Μαρίνου-Π. Πολίτου]
TTITLE9=Τσαχαλού Αννούλα - Κάνε με να σε μισήσω [Ν. Γιαννακάκη]
TTITLE10=Ατταλειώτης Μπάμπης - Τι σε μέλει εσένα [Τ. Λαβίδα]
TTITLE11=Ατταλειώτης Μπάμπης - Θα πεθάνω μάννα [Τ. Λαβίδα]
EXTD=
EXTT0=
EXTT1=
EXTT2=
EXTT3=
EXTT4=
EXTT5=
EXTT6=
EXTT7=
EXTT8=
EXTT9=
EXTT10=
EXTT11=
PLAYORDER=
